<svg width="40" height="24" viewBox="0 0 40 24" fill="none" xmlns="http://www.w3.org/2000/svg">
  <rect width="40" height="24" rx="4" fill="currentColor"/>
  <path d="M8 8h3l2 8h-2.5l-.3-1.5H7.7L7.4 16H5l2.5-8zm.8 5h1.4l-.7-3.5L8.8 13z" fill="white"/>
  <path d="M13 8h2v8h-2V8z" fill="white"/>
  <path d="M16 10c0-.8.6-1.5 1.4-1.5s1.6.3 1.6.3V10s-.8-.5-1.3-.5c-.3 0-.7.2-.7.5 0 .8 2 .8 2 2.5 0 1.2-1 2-2 2s-2-.5-2-.5V13s1 .5 1.5.5c.4 0 .5-.3.5-.5 0-.8-2-.8-2-2.5z" fill="white"/>
  <path d="M22 8h2l2 8h-2l-.2-1h-1.6l-.2 1h-2l2-8zm1 2l-.5 3h1l-.5-3z" fill="white"/>
</svg>